<svg xmlns="http://www.w3.org/2000/svg" xmlns:xlink="http://www.w3.org/1999/xlink" width="853" zoomAndPan="magnify" viewBox="0 0 639.75 284.250005" height="379" preserveAspectRatio="xMidYMid meet" version="1.2"><defs><filter x="0%" y="0%" width="100%" filterUnits="objectBoundingBox" id="c45b657846" height="100%"><feColorMatrix values="0 0 0 0 1 0 0 0 0 1 0 0 0 0 1 0 0 0 1 0" type="matrix" in="SourceGraphic"/></filter><clipPath id="4e7ffd3ea2"><rect x="0" width="594" y="0" height="242"/></clipPath><clipPath id="abc512e8a6"><path d="M 77 93 L 210 93 L 210 166 L 77 166 Z M 77 93 "/></clipPath><clipPath id="e2877e6ad7"><path d="M 0.503906 0.585938 L 234.605469 0.585938 L 234.605469 17 L 0.503906 17 Z M 0.503906 0.585938 "/></clipPath><clipPath id="a2ea2c72c8"><rect x="0" width="235" y="0" height="18"/></clipPath></defs><g id="d5d426326b"><g mask="url(#6e2a220391)" transform="matrix(1,0,0,1,23,21)"><g clip-path="url(#4e7ffd3ea2)"><g style="fill:#fffbfc;fill-opacity:1;"><g transform="translate(36.906231, 95.986589)"><path style="stroke:none" d="M 87.046875 -1.25 C 87.179688 -1.25 87.25 -1.039062 87.25 -0.625 C 87.25 -0.207031 87.179688 0 87.046875 0 C 84.679688 0 82.800781 -0.0351562 81.40625 -0.109375 L 73.671875 -0.203125 L 65.828125 -0.109375 C 64.503906 -0.0351562 62.695312 0 60.40625 0 C 60.195312 0 60.09375 -0.207031 60.09375 -0.625 C 60.09375 -1.039062 60.195312 -1.25 60.40625 -1.25 C 63.332031 -1.25 65.316406 -1.597656 66.359375 -2.296875 C 67.398438 -2.992188 67.921875 -4.457031 67.921875 -6.6875 L 67.828125 -8.46875 L 65.625 -51.203125 L 44.09375 -0.734375 C 43.957031 -0.453125 43.679688 -0.3125 43.265625 -0.3125 C 42.847656 -0.3125 42.566406 -0.453125 42.421875 -0.734375 L 15.984375 -51 L 15.15625 -13.265625 C 15.082031 -9.503906 15.828125 -6.5625 17.390625 -4.4375 C 18.960938 -2.3125 21.175781 -1.25 24.03125 -1.25 C 24.238281 -1.25 24.34375 -1.039062 24.34375 -0.625 C 24.34375 -0.207031 24.238281 0 24.03125 0 C 22.15625 0 20.691406 -0.0351562 19.640625 -0.109375 L 13.90625 -0.203125 L 7.3125 -0.109375 C 6.195312 -0.0351562 4.703125 0 2.828125 0 C 2.617188 0 2.515625 -0.207031 2.515625 -0.625 C 2.515625 -1.039062 2.617188 -1.25 2.828125 -1.25 C 5.679688 -1.25 7.941406 -2.328125 9.609375 -4.484375 C 11.285156 -6.648438 12.15625 -9.578125 12.21875 -13.265625 L 13.171875 -56.53125 L 13.0625 -56.640625 C 11.664062 -59.210938 10.21875 -61.09375 8.71875 -62.28125 C 7.226562 -63.46875 5.503906 -64.0625 3.546875 -64.0625 C 3.335938 -64.0625 3.234375 -64.269531 3.234375 -64.6875 C 3.234375 -65.101562 3.335938 -65.3125 3.546875 -65.3125 L 8.46875 -65.203125 C 9.4375 -65.140625 10.6875 -65.109375 12.21875 -65.109375 L 17.765625 -65.203125 C 18.390625 -65.273438 19.191406 -65.3125 20.171875 -65.3125 C 21.078125 -65.3125 21.769531 -65 22.25 -64.375 C 22.738281 -63.75 23.644531 -62.25 24.96875 -59.875 L 47.75 -17.140625 L 67.609375 -62.703125 C 68.023438 -63.671875 68.457031 -64.347656 68.90625 -64.734375 C 69.363281 -65.117188 69.976562 -65.3125 70.75 -65.3125 C 71.375 -65.3125 72.085938 -65.273438 72.890625 -65.203125 C 73.691406 -65.140625 74.613281 -65.109375 75.65625 -65.109375 L 81.828125 -65.203125 C 82.796875 -65.273438 84.1875 -65.3125 86 -65.3125 C 86.207031 -65.3125 86.3125 -65.101562 86.3125 -64.6875 C 86.3125 -64.269531 86.207031 -64.0625 86 -64.0625 C 82.726562 -64.0625 80.359375 -63.398438 78.890625 -62.078125 C 77.429688 -60.753906 76.769531 -58.695312 76.90625 -55.90625 L 79.421875 -8.46875 C 79.554688 -6.300781 79.816406 -4.726562 80.203125 -3.75 C 80.585938 -2.78125 81.285156 -2.117188 82.296875 -1.765625 C 83.304688 -1.421875 84.890625 -1.25 87.046875 -1.25 Z M 87.046875 -1.25 "/></g></g><g style="fill:#fffbfc;fill-opacity:1;"><g transform="translate(126.454119, 95.986589)"><path style="stroke:none" d="M 23.71875 -8.46875 C 23.71875 -6.300781 23.890625 -4.726562 24.234375 -3.75 C 24.585938 -2.78125 25.269531 -2.117188 26.28125 -1.765625 C 27.289062 -1.421875 28.910156 -1.25 31.140625 -1.25 C 31.347656 -1.25 31.453125 -1.039062 31.453125 -0.625 C 31.453125 -0.207031 31.347656 0 31.140625 0 C 28.835938 0 27.023438 -0.0351562 25.703125 -0.109375 L 17.765625 -0.203125 L 10.03125 -0.109375 C 8.632812 -0.0351562 6.753906 0 4.390625 0 C 4.253906 0 4.1875 -0.207031 4.1875 -0.625 C 4.1875 -1.039062 4.253906 -1.25 4.390625 -1.25 C 6.617188 -1.25 8.253906 -1.421875 9.296875 -1.765625 C 10.347656 -2.117188 11.0625 -2.800781 11.4375 -3.8125 C 11.820312 -4.820312 12.015625 -6.375 12.015625 -8.46875 L 12.015625 -56.84375 C 12.015625 -58.9375 11.820312 -60.46875 11.4375 -61.4375 C 11.0625 -62.414062 10.347656 -63.097656 9.296875 -63.484375 C 8.253906 -63.867188 6.617188 -64.0625 4.390625 -64.0625 C 4.253906 -64.0625 4.1875 -64.269531 4.1875 -64.6875 C 4.1875 -65.101562 4.253906 -65.3125 4.390625 -65.3125 L 10.03125 -65.203125 C 13.238281 -65.066406 15.816406 -65 17.765625 -65 C 19.921875 -65 22.601562 -65.066406 25.8125 -65.203125 L 31.140625 -65.3125 C 31.347656 -65.3125 31.453125 -65.101562 31.453125 -64.6875 C 31.453125 -64.269531 31.347656 -64.0625 31.140625 -64.0625 C 28.984375 -64.0625 27.378906 -63.847656 26.328125 -63.421875 C 25.285156 -63.003906 24.585938 -62.289062 24.234375 -61.28125 C 23.890625 -60.28125 23.71875 -58.734375 23.71875 -56.640625 Z M 23.71875 -8.46875 "/></g></g><g style="fill:#fffbfc;fill-opacity:1;"><g transform="translate(162.189678, 95.986589)"><path style="stroke:none" d="M 44.625 -66.46875 C 47.894531 -66.46875 51.21875 -66.203125 54.59375 -65.671875 C 57.976562 -65.148438 60.679688 -64.472656 62.703125 -63.640625 C 63.328125 -63.429688 63.722656 -63.171875 63.890625 -62.859375 C 64.066406 -62.546875 64.191406 -62.003906 64.265625 -61.234375 L 65.625 -46.71875 C 65.625 -46.5 65.445312 -46.351562 65.09375 -46.28125 C 64.75 -46.21875 64.507812 -46.328125 64.375 -46.609375 C 62.425781 -52.316406 59.640625 -56.6875 56.015625 -59.71875 C 52.390625 -62.75 48.035156 -64.265625 42.953125 -64.265625 C 38.210938 -64.265625 33.976562 -62.992188 30.25 -60.453125 C 26.519531 -57.910156 23.59375 -54.269531 21.46875 -49.53125 C 19.34375 -44.789062 18.28125 -39.253906 18.28125 -32.921875 C 18.28125 -26.503906 19.378906 -20.875 21.578125 -16.03125 C 23.773438 -11.195312 26.804688 -7.472656 30.671875 -4.859375 C 34.535156 -2.242188 38.976562 -0.9375 44 -0.9375 C 48.800781 -0.9375 52.835938 -2.242188 56.109375 -4.859375 C 59.390625 -7.472656 62.492188 -11.773438 65.421875 -17.765625 C 65.484375 -17.972656 65.6875 -18.039062 66.03125 -17.96875 C 66.382812 -17.90625 66.5625 -17.769531 66.5625 -17.5625 L 65 -4.59375 C 64.863281 -3.757812 64.722656 -3.21875 64.578125 -2.96875 C 64.441406 -2.726562 64.0625 -2.46875 63.4375 -2.1875 C 57.019531 0.101562 50.539062 1.25 44 1.25 C 36.539062 1.25 29.867188 -0.15625 23.984375 -2.96875 C 18.097656 -5.789062 13.484375 -9.742188 10.140625 -14.828125 C 6.796875 -19.921875 5.125 -25.707031 5.125 -32.1875 C 5.125 -38.800781 6.847656 -44.703125 10.296875 -49.890625 C 13.742188 -55.085938 18.476562 -59.148438 24.5 -62.078125 C 30.53125 -65.003906 37.238281 -66.46875 44.625 -66.46875 Z M 44.625 -66.46875 "/></g></g><g style="fill:#fffbfc;fill-opacity:1;"><g transform="translate(233.347323, 95.986589)"><path style="stroke:none" d="M 73.984375 -1.25 C 74.117188 -1.25 74.1875 -1.039062 74.1875 -0.625 C 74.1875 -0.207031 74.117188 0 73.984375 0 L 55.390625 0 C 53.859375 0 51 -2.765625 46.8125 -8.296875 C 42.632812 -13.835938 37.582031 -21.59375 31.65625 -31.5625 C 31.101562 -31.488281 30.304688 -31.453125 29.265625 -31.453125 C 26.546875 -31.453125 24.628906 -31.488281 23.515625 -31.5625 L 23.515625 -8.46875 C 23.515625 -6.300781 23.6875 -4.726562 24.03125 -3.75 C 24.382812 -2.78125 25.066406 -2.117188 26.078125 -1.765625 C 27.085938 -1.421875 28.707031 -1.25 30.9375 -1.25 C 31.070312 -1.25 31.140625 -1.039062 31.140625 -0.625 C 31.140625 -0.207031 31.070312 0 30.9375 0 C 28.632812 0 26.820312 -0.0351562 25.5 -0.109375 L 17.5625 -0.203125 L 9.921875 -0.109375 C 8.535156 -0.0351562 6.65625 0 4.28125 0 C 4.070312 0 3.96875 -0.207031 3.96875 -0.625 C 3.96875 -1.039062 4.070312 -1.25 4.28125 -1.25 C 6.507812 -1.25 8.128906 -1.421875 9.140625 -1.765625 C 10.148438 -2.117188 10.847656 -2.800781 11.234375 -3.8125 C 11.617188 -4.820312 11.8125 -6.375 11.8125 -8.46875 L 11.8125 -56.84375 C 11.8125 -58.9375 11.632812 -60.46875 11.28125 -61.4375 C 10.9375 -62.414062 10.238281 -63.097656 9.1875 -63.484375 C 8.144531 -63.867188 6.546875 -64.0625 4.390625 -64.0625 C 4.253906 -64.0625 4.1875 -64.269531 4.1875 -64.6875 C 4.1875 -65.101562 4.253906 -65.3125 4.390625 -65.3125 L 9.921875 -65.203125 C 13.128906 -65.066406 15.675781 -65 17.5625 -65 C 19.925781 -65 22.394531 -65.101562 24.96875 -65.3125 C 25.875 -65.382812 27.003906 -65.453125 28.359375 -65.515625 C 29.722656 -65.585938 31.242188 -65.625 32.921875 -65.625 C 39.253906 -65.625 44.160156 -64.457031 47.640625 -62.125 C 51.128906 -59.789062 52.875 -56.535156 52.875 -52.359375 C 52.875 -48.523438 51.828125 -45.054688 49.734375 -41.953125 C 47.648438 -38.859375 44.863281 -36.367188 41.375 -34.484375 C 46.945312 -26.117188 51.613281 -19.566406 55.375 -14.828125 C 59.144531 -10.097656 62.492188 -6.648438 65.421875 -4.484375 C 68.347656 -2.328125 71.203125 -1.25 73.984375 -1.25 Z M 23.515625 -34.484375 C 25.179688 -34.203125 27.203125 -34.0625 29.578125 -34.0625 C 33.617188 -34.0625 36.523438 -35.191406 38.296875 -37.453125 C 40.078125 -39.722656 40.96875 -43.367188 40.96875 -48.390625 C 40.96875 -54.097656 40.128906 -58.03125 38.453125 -60.1875 C 36.785156 -62.351562 34.382812 -63.4375 31.25 -63.4375 C 28.457031 -63.4375 26.46875 -62.910156 25.28125 -61.859375 C 24.101562 -60.816406 23.515625 -59.078125 23.515625 -56.640625 Z M 23.515625 -34.484375 "/></g></g><g style="fill:#fffbfc;fill-opacity:1;"><g transform="translate(306.281325, 95.986589)"><path style="stroke:none" d="M 38.25 1.25 C 31.769531 1.25 26.003906 -0.265625 20.953125 -3.296875 C 15.898438 -6.328125 12 -10.4375 9.25 -15.625 C 6.5 -20.8125 5.125 -26.472656 5.125 -32.609375 C 5.125 -39.785156 6.929688 -45.929688 10.546875 -51.046875 C 14.171875 -56.171875 18.820312 -60.019531 24.5 -62.59375 C 30.175781 -65.175781 35.976562 -66.46875 41.90625 -66.46875 C 48.519531 -66.46875 54.332031 -64.914062 59.34375 -61.8125 C 64.363281 -58.707031 68.210938 -54.613281 70.890625 -49.53125 C 73.578125 -44.445312 74.921875 -39.046875 74.921875 -33.328125 C 74.921875 -26.992188 73.25 -21.175781 69.90625 -15.875 C 66.5625 -10.582031 62.082031 -6.40625 56.46875 -3.34375 C 50.863281 -0.28125 44.789062 1.25 38.25 1.25 Z M 41.703125 -1.359375 C 45.597656 -1.359375 49.09375 -2.488281 52.1875 -4.75 C 55.289062 -7.019531 57.710938 -10.332031 59.453125 -14.6875 C 61.203125 -19.039062 62.078125 -24.25 62.078125 -30.3125 C 62.078125 -36.71875 61.097656 -42.445312 59.140625 -47.5 C 57.191406 -52.550781 54.367188 -56.503906 50.671875 -59.359375 C 46.984375 -62.210938 42.664062 -63.640625 37.71875 -63.640625 C 31.382812 -63.640625 26.507812 -61.253906 23.09375 -56.484375 C 19.675781 -51.710938 17.96875 -45.039062 17.96875 -36.46875 C 17.96875 -29.707031 18.992188 -23.660156 21.046875 -18.328125 C 23.109375 -13.003906 25.929688 -8.84375 29.515625 -5.84375 C 33.109375 -2.851562 37.171875 -1.359375 41.703125 -1.359375 Z M 41.703125 -1.359375 "/></g></g><g style="fill:#fffbfc;fill-opacity:1;"><g transform="translate(386.320619, 95.986589)"><path style="stroke:none" d="M 22.578125 -8.875 C 22.578125 -6.644531 22.816406 -5.023438 23.296875 -4.015625 C 23.785156 -3.015625 24.707031 -2.300781 26.0625 -1.875 C 27.425781 -1.457031 29.609375 -1.25 32.609375 -1.25 C 32.816406 -1.25 32.921875 -1.039062 32.921875 -0.625 C 32.921875 -0.207031 32.816406 0 32.609375 0 C 29.742188 0 27.515625 -0.0351562 25.921875 -0.109375 L 16.828125 -0.203125 L 9.203125 -0.109375 C 7.804688 -0.0351562 5.921875 0 3.546875 0 C 3.335938 0 3.234375 -0.207031 3.234375 -0.625 C 3.234375 -1.039062 3.335938 -1.25 3.546875 -1.25 C 5.773438 -1.25 7.394531 -1.421875 8.40625 -1.765625 C 9.414062 -2.117188 10.09375 -2.800781 10.4375 -3.8125 C 10.789062 -4.820312 10.96875 -6.375 10.96875 -8.46875 L 10.96875 -56.84375 C 10.96875 -58.9375 10.789062 -60.46875 10.4375 -61.4375 C 10.09375 -62.414062 9.398438 -63.097656 8.359375 -63.484375 C 7.316406 -63.867188 5.710938 -64.0625 3.546875 -64.0625 C 3.335938 -64.0625 3.234375 -64.269531 3.234375 -64.6875 C 3.234375 -65.101562 3.335938 -65.3125 3.546875 -65.3125 L 9.09375 -65.203125 C 12.300781 -65.066406 14.84375 -65 16.71875 -65 C 18.394531 -65 20.378906 -65.101562 22.671875 -65.3125 C 23.578125 -65.382812 24.726562 -65.453125 26.125 -65.515625 C 27.519531 -65.585938 29.125 -65.625 30.9375 -65.625 C 38.039062 -65.625 43.644531 -64.144531 47.75 -61.1875 C 51.863281 -58.226562 53.921875 -53.644531 53.921875 -47.4375 C 53.921875 -43.125 52.804688 -39.46875 50.578125 -36.46875 C 48.347656 -33.476562 45.472656 -31.210938 41.953125 -29.671875 C 38.429688 -28.140625 34.828125 -27.375 31.140625 -27.375 C 29.253906 -27.375 27.617188 -27.550781 26.234375 -27.90625 C 26.085938 -27.90625 26.015625 -28.078125 26.015625 -28.421875 C 26.015625 -28.628906 26.066406 -28.835938 26.171875 -29.046875 C 26.273438 -29.253906 26.398438 -29.328125 26.546875 -29.265625 C 27.585938 -28.984375 28.769531 -28.84375 30.09375 -28.84375 C 33.300781 -28.84375 35.96875 -30.335938 38.09375 -33.328125 C 40.21875 -36.328125 41.28125 -40.578125 41.28125 -46.078125 C 41.28125 -51.585938 40.113281 -55.835938 37.78125 -58.828125 C 35.445312 -61.828125 32.050781 -63.328125 27.59375 -63.328125 C 25.632812 -63.328125 24.304688 -62.875 23.609375 -61.96875 C 22.921875 -61.0625 22.578125 -59.285156 22.578125 -56.640625 Z M 22.578125 -8.875 "/></g></g><g style="fill:#fffbfc;fill-opacity:1;"><g transform="translate(444.10355, 95.986589)"><path style="stroke:none" d="M 23.71875 -8.46875 C 23.71875 -6.300781 23.890625 -4.726562 24.234375 -3.75 C 24.585938 -2.78125 25.269531 -2.117188 26.28125 -1.765625 C 27.289062 -1.421875 28.910156 -1.25 31.140625 -1.25 C 31.347656 -1.25 31.453125 -1.039062 31.453125 -0.625 C 31.453125 -0.207031 31.347656 0 31.140625 0 C 28.835938 0 27.023438 -0.0351562 25.703125 -0.109375 L 17.765625 -0.203125 L 10.03125 -0.109375 C 8.632812 -0.0351562 6.753906 0 4.390625 0 C 4.253906 0 4.1875 -0.207031 4.1875 -0.625 C 4.1875 -1.039062 4.253906 -1.25 4.390625 -1.25 C 6.617188 -1.25 8.253906 -1.421875 9.296875 -1.765625 C 10.347656 -2.117188 11.0625 -2.800781 11.4375 -3.8125 C 11.820312 -4.820312 12.015625 -6.375 12.015625 -8.46875 L 12.015625 -56.84375 C 12.015625 -58.9375 11.820312 -60.46875 11.4375 -61.4375 C 11.0625 -62.414062 10.347656 -63.097656 9.296875 -63.484375 C 8.253906 -63.867188 6.617188 -64.0625 4.390625 -64.0625 C 4.253906 -64.0625 4.1875 -64.269531 4.1875 -64.6875 C 4.1875 -65.101562 4.253906 -65.3125 4.390625 -65.3125 L 10.03125 -65.203125 C 13.238281 -65.066406 15.816406 -65 17.765625 -65 C 19.921875 -65 22.601562 -65.066406 25.8125 -65.203125 L 31.140625 -65.3125 C 31.347656 -65.3125 31.453125 -65.101562 31.453125 -64.6875 C 31.453125 -64.269531 31.347656 -64.0625 31.140625 -64.0625 C 28.984375 -64.0625 27.378906 -63.847656 26.328125 -63.421875 C 25.285156 -63.003906 24.585938 -62.289062 24.234375 -61.28125 C 23.890625 -60.28125 23.71875 -58.734375 23.71875 -56.640625 Z M 23.71875 -8.46875 "/></g></g><g style="fill:#fffbfc;fill-opacity:1;"><g transform="translate(479.839155, 95.986589)"><path style="stroke:none" d="M 44 1.25 C 36.050781 1.25 29.148438 -0.226562 23.296875 -3.1875 C 17.453125 -6.144531 12.960938 -10.164062 9.828125 -15.25 C 6.691406 -20.34375 5.125 -25.988281 5.125 -32.1875 C 5.125 -38.800781 6.878906 -44.71875 10.390625 -49.9375 C 13.910156 -55.164062 18.769531 -59.226562 24.96875 -62.125 C 31.175781 -65.019531 38.144531 -66.46875 45.875 -66.46875 C 49.21875 -66.46875 52.5625 -66.203125 55.90625 -65.671875 C 59.25 -65.148438 61.929688 -64.472656 63.953125 -63.640625 C 64.722656 -63.359375 65.160156 -63.128906 65.265625 -62.953125 C 65.367188 -62.785156 65.453125 -62.210938 65.515625 -61.234375 L 66.875 -46.71875 C 66.875 -46.5 66.679688 -46.351562 66.296875 -46.28125 C 65.921875 -46.21875 65.695312 -46.328125 65.625 -46.609375 C 64.71875 -48.910156 63.253906 -51.414062 61.234375 -54.125 C 59.210938 -56.84375 56.566406 -59.210938 53.296875 -61.234375 C 50.023438 -63.253906 46.226562 -64.265625 41.90625 -64.265625 C 37.445312 -64.265625 33.367188 -63.046875 29.671875 -60.609375 C 25.984375 -58.171875 23.078125 -54.6875 20.953125 -50.15625 C 18.828125 -45.632812 17.765625 -40.375 17.765625 -34.375 C 17.765625 -27.832031 19 -21.984375 21.46875 -16.828125 C 23.945312 -11.671875 27.378906 -7.660156 31.765625 -4.796875 C 36.148438 -1.941406 41.097656 -0.515625 46.609375 -0.515625 C 49.460938 -0.515625 51.65625 -0.828125 53.1875 -1.453125 C 54.71875 -2.085938 55.832031 -3.3125 56.53125 -5.125 C 57.226562 -6.9375 57.578125 -9.617188 57.578125 -13.171875 C 57.578125 -16.785156 57.367188 -19.304688 56.953125 -20.734375 C 56.535156 -22.171875 55.644531 -23.128906 54.28125 -23.609375 C 52.925781 -24.097656 50.539062 -24.34375 47.125 -24.34375 C 46.707031 -24.34375 46.5 -24.625 46.5 -25.1875 C 46.5 -25.394531 46.550781 -25.582031 46.65625 -25.75 C 46.757812 -25.925781 46.882812 -26.015625 47.03125 -26.015625 C 52.945312 -25.671875 57.753906 -25.5 61.453125 -25.5 C 65.003906 -25.5 68.691406 -25.601562 72.515625 -25.8125 C 72.796875 -25.8125 72.953125 -25.566406 72.984375 -25.078125 C 73.023438 -24.585938 72.867188 -24.34375 72.515625 -24.34375 C 71.265625 -24.414062 70.378906 -24.191406 69.859375 -23.671875 C 69.335938 -23.148438 69.003906 -22.085938 68.859375 -20.484375 C 68.722656 -18.878906 68.65625 -16.09375 68.65625 -12.125 C 68.65625 -8.988281 68.773438 -6.757812 69.015625 -5.4375 C 69.265625 -4.113281 69.390625 -3.273438 69.390625 -2.921875 C 69.390625 -2.503906 69.316406 -2.222656 69.171875 -2.078125 C 69.035156 -1.941406 68.722656 -1.804688 68.234375 -1.671875 C 59.253906 0.273438 51.175781 1.25 44 1.25 Z M 44 1.25 "/></g></g><g style="fill:#fffbfc;fill-opacity:1;"><g transform="translate(0.533452, 210.434613)"><path style="stroke:none" d="M 87.046875 -1.25 C 87.179688 -1.25 87.25 -1.039062 87.25 -0.625 C 87.25 -0.207031 87.179688 0 87.046875 0 C 84.679688 0 82.800781 -0.0351562 81.40625 -0.109375 L 73.671875 -0.203125 L 65.828125 -0.109375 C 64.503906 -0.0351562 62.695312 0 60.40625 0 C 60.195312 0 60.09375 -0.207031 60.09375 -0.625 C 60.09375 -1.039062 60.195312 -1.25 60.40625 -1.25 C 63.332031 -1.25 65.316406 -1.597656 66.359375 -2.296875 C 67.398438 -2.992188 67.921875 -4.457031 67.921875 -6.6875 L 67.828125 -8.46875 L 65.625 -51.203125 L 44.09375 -0.734375 C 43.957031 -0.453125 43.679688 -0.3125 43.265625 -0.3125 C 42.847656 -0.3125 42.566406 -0.453125 42.421875 -0.734375 L 15.984375 -51 L 15.15625 -13.265625 C 15.082031 -9.503906 15.828125 -6.5625 17.390625 -4.4375 C 18.960938 -2.3125 21.175781 -1.25 24.03125 -1.25 C 24.238281 -1.25 24.34375 -1.039062 24.34375 -0.625 C 24.34375 -0.207031 24.238281 0 24.03125 0 C 22.15625 0 20.691406 -0.0351562 19.640625 -0.109375 L 13.90625 -0.203125 L 7.3125 -0.109375 C 6.195312 -0.0351562 4.703125 0 2.828125 0 C 2.617188 0 2.515625 -0.207031 2.515625 -0.625 C 2.515625 -1.039062 2.617188 -1.25 2.828125 -1.25 C 5.679688 -1.25 7.941406 -2.328125 9.609375 -4.484375 C 11.285156 -6.648438 12.15625 -9.578125 12.21875 -13.265625 L 13.171875 -56.53125 L 13.0625 -56.640625 C 11.664062 -59.210938 10.21875 -61.09375 8.71875 -62.28125 C 7.226562 -63.46875 5.503906 -64.0625 3.546875 -64.0625 C 3.335938 -64.0625 3.234375 -64.269531 3.234375 -64.6875 C 3.234375 -65.101562 3.335938 -65.3125 3.546875 -65.3125 L 8.46875 -65.203125 C 9.4375 -65.140625 10.6875 -65.109375 12.21875 -65.109375 L 17.765625 -65.203125 C 18.390625 -65.273438 19.191406 -65.3125 20.171875 -65.3125 C 21.078125 -65.3125 21.769531 -65 22.25 -64.375 C 22.738281 -63.75 23.644531 -62.25 24.96875 -59.875 L 47.75 -17.140625 L 67.609375 -62.703125 C 68.023438 -63.671875 68.457031 -64.347656 68.90625 -64.734375 C 69.363281 -65.117188 69.976562 -65.3125 70.75 -65.3125 C 71.375 -65.3125 72.085938 -65.273438 72.890625 -65.203125 C 73.691406 -65.140625 74.613281 -65.109375 75.65625 -65.109375 L 81.828125 -65.203125 C 82.796875 -65.273438 84.1875 -65.3125 86 -65.3125 C 86.207031 -65.3125 86.3125 -65.101562 86.3125 -64.6875 C 86.3125 -64.269531 86.207031 -64.0625 86 -64.0625 C 82.726562 -64.0625 80.359375 -63.398438 78.890625 -62.078125 C 77.429688 -60.753906 76.769531 -58.695312 76.90625 -55.90625 L 79.421875 -8.46875 C 79.554688 -6.300781 79.816406 -4.726562 80.203125 -3.75 C 80.585938 -2.78125 81.285156 -2.117188 82.296875 -1.765625 C 83.304688 -1.421875 84.890625 -1.25 87.046875 -1.25 Z M 87.046875 -1.25 "/></g></g><g style="fill:#fffbfc;fill-opacity:1;"><g transform="translate(90.08134, 210.434613)"><path style="stroke:none" d="M 51.828125 -16.609375 C 51.828125 -16.753906 51.96875 -16.828125 52.25 -16.828125 C 52.457031 -16.828125 52.648438 -16.773438 52.828125 -16.671875 C 53.003906 -16.566406 53.09375 -16.476562 53.09375 -16.40625 C 52.394531 -10.96875 52.046875 -6.019531 52.046875 -1.5625 C 52.046875 -1.007812 51.9375 -0.609375 51.71875 -0.359375 C 51.507812 -0.117188 51.09375 0 50.46875 0 L 4.28125 0 C 4.070312 0 3.96875 -0.207031 3.96875 -0.625 C 3.96875 -1.039062 4.070312 -1.25 4.28125 -1.25 C 6.507812 -1.25 8.128906 -1.421875 9.140625 -1.765625 C 10.148438 -2.117188 10.828125 -2.800781 11.171875 -3.8125 C 11.523438 -4.820312 11.703125 -6.375 11.703125 -8.46875 L 11.703125 -56.84375 C 11.703125 -58.9375 11.523438 -60.46875 11.171875 -61.4375 C 10.828125 -62.414062 10.132812 -63.097656 9.09375 -63.484375 C 8.050781 -63.867188 6.445312 -64.0625 4.28125 -64.0625 C 4.070312 -64.0625 3.96875 -64.269531 3.96875 -64.6875 C 3.96875 -65.101562 4.070312 -65.3125 4.28125 -65.3125 L 48.59375 -65.3125 C 49.289062 -65.3125 49.640625 -65 49.640625 -64.375 L 49.84375 -50.46875 C 49.84375 -50.332031 49.648438 -50.226562 49.265625 -50.15625 C 48.890625 -50.09375 48.664062 -50.164062 48.59375 -50.375 C 47.476562 -54.414062 45.597656 -57.410156 42.953125 -59.359375 C 40.304688 -61.304688 36.820312 -62.28125 32.5 -62.28125 L 29.359375 -62.28125 C 27.273438 -62.28125 25.742188 -61.828125 24.765625 -60.921875 C 23.785156 -60.015625 23.296875 -58.625 23.296875 -56.75 L 23.296875 -35.421875 L 31.984375 -35.421875 C 36.015625 -35.421875 39.109375 -36.117188 41.265625 -37.515625 C 43.429688 -38.910156 44.515625 -40.863281 44.515625 -43.375 C 44.515625 -43.582031 44.707031 -43.6875 45.09375 -43.6875 C 45.476562 -43.6875 45.671875 -43.582031 45.671875 -43.375 L 45.5625 -33.96875 L 45.671875 -28.953125 C 45.804688 -26.578125 45.875 -24.691406 45.875 -23.296875 C 45.875 -23.160156 45.664062 -23.09375 45.25 -23.09375 C 44.832031 -23.09375 44.625 -23.160156 44.625 -23.296875 C 44.625 -26.160156 43.523438 -28.410156 41.328125 -30.046875 C 39.128906 -31.679688 35.976562 -32.5 31.875 -32.5 L 23.296875 -32.5 L 23.296875 -8.875 C 23.296875 -6.863281 23.679688 -5.367188 24.453125 -4.390625 C 25.222656 -3.410156 26.441406 -2.921875 28.109375 -2.921875 L 31.5625 -2.921875 C 36.988281 -2.921875 41.335938 -4.035156 44.609375 -6.265625 C 47.890625 -8.492188 50.296875 -11.941406 51.828125 -16.609375 Z M 51.828125 -16.609375 "/></g></g><g style="fill:#fffbfc;fill-opacity:1;"><g transform="translate(147.7598, 210.434613)"><path style="stroke:none" d="M 75.546875 -65.3125 C 75.691406 -65.3125 75.765625 -65.101562 75.765625 -64.6875 C 75.765625 -64.269531 75.691406 -64.0625 75.546875 -64.0625 C 72.765625 -64.0625 70.570312 -62.960938 68.96875 -60.765625 C 67.363281 -58.566406 66.5625 -55.625 66.5625 -51.9375 L 66.5625 1.5625 C 66.5625 1.769531 66.40625 1.910156 66.09375 1.984375 C 65.78125 2.054688 65.554688 2.019531 65.421875 1.875 L 16.40625 -53.921875 L 16.40625 -13.265625 C 16.40625 -9.578125 17.171875 -6.648438 18.703125 -4.484375 C 20.234375 -2.328125 22.359375 -1.25 25.078125 -1.25 C 25.210938 -1.25 25.28125 -1.039062 25.28125 -0.625 C 25.28125 -0.207031 25.210938 0 25.078125 0 C 23.128906 0 21.632812 -0.0351562 20.59375 -0.109375 L 14.9375 -0.203125 L 8.46875 -0.109375 C 7.28125 -0.0351562 5.570312 0 3.34375 0 C 3.132812 0 3.03125 -0.207031 3.03125 -0.625 C 3.03125 -1.039062 3.132812 -1.25 3.34375 -1.25 C 6.40625 -1.25 8.820312 -2.328125 10.59375 -4.484375 C 12.375 -6.648438 13.265625 -9.578125 13.265625 -13.265625 L 13.265625 -57.46875 C 10.972656 -59.976562 9.003906 -61.703125 7.359375 -62.640625 C 5.722656 -63.585938 4.035156 -64.0625 2.296875 -64.0625 C 2.160156 -64.0625 2.09375 -64.269531 2.09375 -64.6875 C 2.09375 -65.101562 2.160156 -65.3125 2.296875 -65.3125 L 6.6875 -65.203125 C 7.59375 -65.140625 8.914062 -65.109375 10.65625 -65.109375 L 18.59375 -65.203125 C 19.570312 -65.273438 20.757812 -65.3125 22.15625 -65.3125 C 22.707031 -65.3125 23.125 -65.171875 23.40625 -64.890625 C 23.6875 -64.609375 24.175781 -64.019531 24.875 -63.125 C 26.050781 -61.519531 26.882812 -60.4375 27.375 -59.875 L 63.53125 -18.1875 L 63.53125 -51.9375 C 63.53125 -55.695312 62.765625 -58.65625 61.234375 -60.8125 C 59.703125 -62.976562 57.578125 -64.0625 54.859375 -64.0625 C 54.722656 -64.0625 54.65625 -64.269531 54.65625 -64.6875 C 54.65625 -65.101562 54.722656 -65.3125 54.859375 -65.3125 L 59.359375 -65.203125 C 61.585938 -65.066406 63.46875 -65 65 -65 C 66.394531 -65 68.34375 -65.066406 70.84375 -65.203125 Z M 75.546875 -65.3125 "/></g></g><g style="fill:#fffbfc;fill-opacity:1;"><g transform="translate(224.559909, 210.434613)"><path style="stroke:none" d="M 23.203125 -62.90625 C 14.910156 -62.90625 8.953125 -57.507812 5.328125 -46.71875 C 5.253906 -46.5 5.046875 -46.40625 4.703125 -46.4375 C 4.359375 -46.476562 4.1875 -46.601562 4.1875 -46.8125 C 4.457031 -49.601562 4.765625 -53.207031 5.109375 -57.625 C 5.460938 -62.050781 5.640625 -65.378906 5.640625 -67.609375 C 5.640625 -67.960938 5.832031 -68.140625 6.21875 -68.140625 C 6.601562 -68.140625 6.796875 -67.960938 6.796875 -67.609375 C 6.796875 -66.078125 8.78125 -65.3125 12.75 -65.3125 C 18.738281 -65.101562 25.738281 -65 33.75 -65 C 37.863281 -65 42.21875 -65.066406 46.8125 -65.203125 L 53.921875 -65.3125 C 56.566406 -65.3125 58.5 -65.484375 59.71875 -65.828125 C 60.9375 -66.179688 61.722656 -66.878906 62.078125 -67.921875 C 62.140625 -68.203125 62.363281 -68.34375 62.75 -68.34375 C 63.132812 -68.34375 63.328125 -68.203125 63.328125 -67.921875 C 63.117188 -65.835938 62.890625 -62.492188 62.640625 -57.890625 C 62.398438 -53.296875 62.28125 -49.601562 62.28125 -46.8125 C 62.28125 -46.601562 62.101562 -46.5 61.75 -46.5 C 61.40625 -46.5 61.195312 -46.601562 61.125 -46.8125 C 60.082031 -52.175781 58.132812 -56.195312 55.28125 -58.875 C 52.425781 -61.5625 48.90625 -62.90625 44.71875 -62.90625 C 42.707031 -62.90625 41.367188 -62.46875 40.703125 -61.59375 C 40.035156 -60.726562 39.703125 -59.078125 39.703125 -56.640625 L 39.703125 -8.46875 C 39.703125 -6.300781 39.910156 -4.726562 40.328125 -3.75 C 40.753906 -2.78125 41.554688 -2.117188 42.734375 -1.765625 C 43.921875 -1.421875 45.804688 -1.25 48.390625 -1.25 C 48.597656 -1.25 48.703125 -1.039062 48.703125 -0.625 C 48.703125 -0.207031 48.597656 0 48.390625 0 C 45.878906 0 43.890625 -0.0351562 42.421875 -0.109375 L 33.75 -0.203125 L 25.28125 -0.109375 C 23.820312 -0.0351562 21.804688 0 19.234375 0 C 19.023438 0 18.921875 -0.207031 18.921875 -0.625 C 18.921875 -1.039062 19.023438 -1.25 19.234375 -1.25 C 21.734375 -1.25 23.59375 -1.421875 24.8125 -1.765625 C 26.03125 -2.117188 26.863281 -2.800781 27.3125 -3.8125 C 27.769531 -4.820312 28 -6.375 28 -8.46875 L 28 -56.84375 C 28 -59.21875 27.6875 -60.820312 27.0625 -61.65625 C 26.4375 -62.488281 25.148438 -62.90625 23.203125 -62.90625 Z M 23.203125 -62.90625 "/></g></g><g style="fill:#fffbfc;fill-opacity:1;"><g transform="translate(291.746952, 210.434613)"><path style="stroke:none" d="M 74.921875 -1.25 C 75.273438 -1.25 75.453125 -1.039062 75.453125 -0.625 C 75.453125 -0.207031 75.273438 0 74.921875 0 C 73.535156 0 71.378906 -0.0664062 68.453125 -0.203125 C 65.378906 -0.347656 63.179688 -0.421875 61.859375 -0.421875 C 60.117188 -0.421875 57.992188 -0.347656 55.484375 -0.203125 C 53.117188 -0.0664062 51.238281 0 49.84375 0 C 49.5625 0 49.421875 -0.207031 49.421875 -0.625 C 49.421875 -1.039062 49.5625 -1.25 49.84375 -1.25 C 51.65625 -1.25 52.960938 -1.441406 53.765625 -1.828125 C 54.566406 -2.210938 54.96875 -2.890625 54.96875 -3.859375 C 54.96875 -5.046875 54.269531 -7.035156 52.875 -9.828125 L 45.765625 -23.9375 L 20.0625 -23.9375 L 15.984375 -14.84375 C 15.078125 -12.820312 14.625 -10.941406 14.625 -9.203125 C 14.625 -6.691406 15.507812 -4.738281 17.28125 -3.34375 C 19.0625 -1.945312 21.453125 -1.25 24.453125 -1.25 C 24.796875 -1.25 24.96875 -1.039062 24.96875 -0.625 C 24.96875 -0.207031 24.796875 0 24.453125 0 C 23.203125 0 21.390625 -0.0664062 19.015625 -0.203125 C 16.367188 -0.347656 14.070312 -0.421875 12.125 -0.421875 C 10.238281 -0.421875 7.972656 -0.347656 5.328125 -0.203125 C 2.960938 -0.0664062 1.046875 0 -0.421875 0 C -0.703125 0 -0.84375 -0.207031 -0.84375 -0.625 C -0.84375 -1.039062 -0.703125 -1.25 -0.421875 -1.25 C 1.535156 -1.25 3.175781 -1.648438 4.5 -2.453125 C 5.820312 -3.253906 7.144531 -4.679688 8.46875 -6.734375 C 9.789062 -8.796875 11.359375 -11.847656 13.171875 -15.890625 L 35.84375 -65.734375 C 35.976562 -65.941406 36.289062 -66.046875 36.78125 -66.046875 C 37.34375 -66.046875 37.65625 -65.941406 37.71875 -65.734375 L 63.84375 -14.3125 C 66.28125 -9.363281 68.300781 -5.945312 69.90625 -4.0625 C 71.507812 -2.1875 73.179688 -1.25 74.921875 -1.25 Z M 21.421875 -26.859375 L 44.203125 -26.859375 L 32.1875 -50.6875 Z M 21.421875 -26.859375 "/></g></g><g style="fill:#fffbfc;fill-opacity:1;"><g transform="translate(366.561749, 210.434613)"><path style="stroke:none" d="M 65.421875 -17.765625 C 65.484375 -17.972656 65.6875 -18.039062 66.03125 -17.96875 C 66.382812 -17.90625 66.5625 -17.769531 66.5625 -17.5625 L 65 -4.59375 C 64.863281 -3.757812 64.722656 -3.21875 64.578125 -2.96875 C 64.441406 -2.726562 64.0625 -2.46875 63.4375 -2.1875 C 57.019531 0.101562 50.539062 1.25 44 1.25 L 43.46875 1.25 C 43.332031 2.226562 43.265625 2.960938 43.265625 3.453125 C 43.265625 4.773438 43.59375 5.921875 44.25 6.890625 C 44.914062 7.867188 45.976562 8.773438 47.4375 9.609375 C 49.25 10.722656 50.660156 11.890625 51.671875 13.109375 C 52.679688 14.328125 53.1875 15.878906 53.1875 17.765625 C 53.1875 20.691406 52.125 23.25 50 25.4375 C 47.875 27.632812 44.6875 28.734375 40.4375 28.734375 C 35.21875 28.734375 32.609375 27.0625 32.609375 23.71875 C 32.609375 22.675781 33.023438 21.734375 33.859375 20.890625 C 34.691406 20.054688 35.664062 19.640625 36.78125 19.640625 C 38.101562 19.640625 39.039062 19.9375 39.59375 20.53125 C 40.15625 21.125 40.613281 21.976562 40.96875 23.09375 C 41.3125 24.132812 41.707031 24.914062 42.15625 25.4375 C 42.613281 25.96875 43.4375 26.234375 44.625 26.234375 C 46.15625 26.234375 46.921875 25.394531 46.921875 23.71875 C 46.921875 21.90625 46.273438 20.265625 44.984375 18.796875 C 43.691406 17.335938 41.445312 15.707031 38.25 13.90625 C 37.625 13.6875 37.3125 13.265625 37.3125 12.640625 C 37.3125 12.148438 37.445312 11.59375 37.71875 10.96875 C 38.976562 7.90625 40.234375 4.632812 41.484375 1.15625 C 34.453125 0.875 28.179688 -0.707031 22.671875 -3.59375 C 17.171875 -6.488281 12.867188 -10.410156 9.765625 -15.359375 C 6.671875 -20.304688 5.125 -25.914062 5.125 -32.1875 C 5.125 -38.800781 6.847656 -44.703125 10.296875 -49.890625 C 13.742188 -55.085938 18.476562 -59.148438 24.5 -62.078125 C 30.53125 -65.003906 37.238281 -66.46875 44.625 -66.46875 C 47.894531 -66.46875 51.21875 -66.203125 54.59375 -65.671875 C 57.976562 -65.148438 60.679688 -64.472656 62.703125 -63.640625 C 63.328125 -63.429688 63.722656 -63.171875 63.890625 -62.859375 C 64.066406 -62.546875 64.191406 -62.003906 64.265625 -61.234375 L 65.625 -46.71875 C 65.625 -46.5 65.445312 -46.351562 65.09375 -46.28125 C 64.75 -46.21875 64.507812 -46.328125 64.375 -46.609375 C 62.425781 -52.316406 59.640625 -56.6875 56.015625 -59.71875 C 52.390625 -62.75 48.035156 -64.265625 42.953125 -64.265625 C 38.210938 -64.265625 33.976562 -62.992188 30.25 -60.453125 C 26.519531 -57.910156 23.59375 -54.269531 21.46875 -49.53125 C 19.34375 -44.789062 18.28125 -39.253906 18.28125 -32.921875 C 18.28125 -26.503906 19.378906 -20.875 21.578125 -16.03125 C 23.773438 -11.195312 26.804688 -7.472656 30.671875 -4.859375 C 34.535156 -2.242188 38.976562 -0.9375 44 -0.9375 C 48.800781 -0.9375 52.835938 -2.242188 56.109375 -4.859375 C 59.390625 -7.472656 62.492188 -11.773438 65.421875 -17.765625 Z M 65.421875 -17.765625 "/></g></g><g style="fill:#fffbfc;fill-opacity:1;"><g transform="translate(437.719394, 210.434613)"><path style="stroke:none" d="M 23.71875 -74.09375 C 23.507812 -74.09375 23.316406 -74.175781 23.140625 -74.34375 C 22.972656 -74.519531 22.957031 -74.679688 23.09375 -74.828125 C 26.226562 -80.460938 29.257812 -83.28125 32.1875 -83.28125 C 32.945312 -83.28125 34.582031 -82.929688 37.09375 -82.234375 C 38.351562 -81.816406 39.675781 -81.453125 41.0625 -81.140625 C 42.457031 -80.828125 43.710938 -80.671875 44.828125 -80.671875 C 46.015625 -80.671875 46.972656 -80.878906 47.703125 -81.296875 C 48.429688 -81.710938 49.25 -82.445312 50.15625 -83.5 L 50.375 -83.59375 C 50.507812 -83.59375 50.644531 -83.488281 50.78125 -83.28125 C 50.925781 -83.070312 50.960938 -82.898438 50.890625 -82.765625 C 49.003906 -79.421875 47.488281 -77.191406 46.34375 -76.078125 C 45.195312 -74.960938 43.820312 -74.40625 42.21875 -74.40625 C 40.894531 -74.40625 38.941406 -74.785156 36.359375 -75.546875 C 35.179688 -75.898438 33.960938 -76.210938 32.703125 -76.484375 C 31.453125 -76.765625 30.269531 -76.90625 29.15625 -76.90625 C 27.832031 -76.90625 26.890625 -76.726562 26.328125 -76.375 C 25.773438 -76.03125 24.941406 -75.269531 23.828125 -74.09375 Z M 74.921875 -1.25 C 75.273438 -1.25 75.453125 -1.039062 75.453125 -0.625 C 75.453125 -0.207031 75.273438 0 74.921875 0 C 73.535156 0 71.378906 -0.0664062 68.453125 -0.203125 C 65.378906 -0.347656 63.179688 -0.421875 61.859375 -0.421875 C 60.117188 -0.421875 57.992188 -0.347656 55.484375 -0.203125 C 53.117188 -0.0664062 51.238281 0 49.84375 0 C 49.5625 0 49.421875 -0.207031 49.421875 -0.625 C 49.421875 -1.039062 49.5625 -1.25 49.84375 -1.25 C 51.65625 -1.25 52.960938 -1.441406 53.765625 -1.828125 C 54.566406 -2.210938 54.96875 -2.890625 54.96875 -3.859375 C 54.96875 -5.046875 54.269531 -7.035156 52.875 -9.828125 L 45.765625 -23.9375 L 20.0625 -23.9375 L 15.984375 -14.84375 C 15.078125 -12.820312 14.625 -10.941406 14.625 -9.203125 C 14.625 -6.691406 15.507812 -4.738281 17.28125 -3.34375 C 19.0625 -1.945312 21.453125 -1.25 24.453125 -1.25 C 24.796875 -1.25 24.96875 -1.039062 24.96875 -0.625 C 24.96875 -0.207031 24.796875 0 24.453125 0 C 23.203125 0 21.390625 -0.0664062 19.015625 -0.203125 C 16.367188 -0.347656 14.070312 -0.421875 12.125 -0.421875 C 10.238281 -0.421875 7.972656 -0.347656 5.328125 -0.203125 C 2.960938 -0.0664062 1.046875 0 -0.421875 0 C -0.703125 0 -0.84375 -0.207031 -0.84375 -0.625 C -0.84375 -1.039062 -0.703125 -1.25 -0.421875 -1.25 C 1.535156 -1.25 3.175781 -1.648438 4.5 -2.453125 C 5.820312 -3.253906 7.144531 -4.679688 8.46875 -6.734375 C 9.789062 -8.796875 11.359375 -11.847656 13.171875 -15.890625 L 35.84375 -65.734375 C 35.976562 -65.941406 36.289062 -66.046875 36.78125 -66.046875 C 37.34375 -66.046875 37.65625 -65.941406 37.71875 -65.734375 L 63.84375 -14.3125 C 66.28125 -9.363281 68.300781 -5.945312 69.90625 -4.0625 C 71.507812 -2.1875 73.179688 -1.25 74.921875 -1.25 Z M 21.421875 -26.859375 L 44.203125 -26.859375 L 32.1875 -50.6875 Z M 21.421875 -26.859375 "/></g></g><g style="fill:#fffbfc;fill-opacity:1;"><g transform="translate(512.534214, 210.434613)"><path style="stroke:none" d="M 38.25 1.25 C 31.769531 1.25 26.003906 -0.265625 20.953125 -3.296875 C 15.898438 -6.328125 12 -10.4375 9.25 -15.625 C 6.5 -20.8125 5.125 -26.472656 5.125 -32.609375 C 5.125 -39.785156 6.929688 -45.929688 10.546875 -51.046875 C 14.171875 -56.171875 18.820312 -60.019531 24.5 -62.59375 C 30.175781 -65.175781 35.976562 -66.46875 41.90625 -66.46875 C 48.519531 -66.46875 54.332031 -64.914062 59.34375 -61.8125 C 64.363281 -58.707031 68.210938 -54.613281 70.890625 -49.53125 C 73.578125 -44.445312 74.921875 -39.046875 74.921875 -33.328125 C 74.921875 -26.992188 73.25 -21.175781 69.90625 -15.875 C 66.5625 -10.582031 62.082031 -6.40625 56.46875 -3.34375 C 50.863281 -0.28125 44.789062 1.25 38.25 1.25 Z M 41.703125 -1.359375 C 45.597656 -1.359375 49.09375 -2.488281 52.1875 -4.75 C 55.289062 -7.019531 57.710938 -10.332031 59.453125 -14.6875 C 61.203125 -19.039062 62.078125 -24.25 62.078125 -30.3125 C 62.078125 -36.71875 61.097656 -42.445312 59.140625 -47.5 C 57.191406 -52.550781 54.367188 -56.503906 50.671875 -59.359375 C 46.984375 -62.210938 42.664062 -63.640625 37.71875 -63.640625 C 31.382812 -63.640625 26.507812 -61.253906 23.09375 -56.484375 C 19.675781 -51.710938 17.96875 -45.039062 17.96875 -36.46875 C 17.96875 -29.707031 18.992188 -23.660156 21.046875 -18.328125 C 23.109375 -13.003906 25.929688 -8.84375 29.515625 -5.84375 C 33.109375 -2.851562 37.171875 -1.359375 41.703125 -1.359375 Z M 41.703125 -1.359375 "/></g></g></g><mask id="6e2a220391"><g filter="url(#c45b657846)"><rect x="0" width="639.75" y="0" height="284.250005" style="fill:#000000;fill-opacity:0.4;stroke:none;"/></g></mask></g><g clip-rule="nonzero" clip-path="url(#abc512e8a6)"><g style="fill:#ffffff;fill-opacity:1;"><g transform="translate(89.508034, 164.112245)"><path style="stroke:none" d="M 32.9375 0.890625 C 32.457031 0.890625 32.21875 0.71875 32.21875 0.375 C 32.21875 0.03125 32.3125 -0.21875 32.5 -0.375 C 34 -1.53125 35.363281 -3.75 36.59375 -7.03125 C 37.0625 -8.375 37.578125 -9.9375 38.140625 -11.71875 L 40.109375 -18.203125 C 43.828125 -30.335938 49.65625 -43.171875 57.59375 -56.703125 L 45.03125 -41.1875 L 36.03125 -30.71875 L 30.4375 -24.484375 C 19.125 -12.097656 10.289062 -4.4375 3.9375 -1.5 C 1.625 -0.4375 -0.410156 0.09375 -2.171875 0.09375 C -3.941406 0.09375 -5.421875 -0.0664062 -6.609375 -0.390625 C -7.796875 -0.722656 -8.78125 -1.1875 -9.5625 -1.78125 C -11.09375 -2.9375 -11.859375 -4.421875 -11.859375 -6.234375 C -11.859375 -7.484375 -11.5 -8.375 -10.78125 -8.90625 C -9.71875 -9.75 -8.78125 -10.171875 -7.96875 -10.171875 C -6.0625 -10.171875 -5.109375 -9.453125 -5.109375 -8.015625 C -5.109375 -7.390625 -5.375 -6.84375 -5.90625 -6.375 C -6.4375 -5.90625 -7.113281 -5.671875 -7.9375 -5.671875 C -8.769531 -5.671875 -9.453125 -5.828125 -9.984375 -6.140625 L -9.984375 -5.859375 C -9.984375 -4.484375 -9.378906 -3.359375 -8.171875 -2.484375 C -6.972656 -1.609375 -5.375 -1.171875 -3.375 -1.171875 C -1.375 -1.171875 0.640625 -1.609375 2.671875 -2.484375 C 4.703125 -3.359375 7.078125 -4.8125 9.796875 -6.84375 C 15.648438 -11.164062 22.671875 -17.921875 30.859375 -27.109375 L 43.859375 -42.03125 C 54.515625 -54.789062 60.519531 -62.171875 61.875 -64.171875 C 62.4375 -64.859375 62.84375 -65.203125 63.09375 -65.203125 C 63.34375 -65.203125 63.46875 -65.09375 63.46875 -64.875 C 63.46875 -64.65625 63.40625 -64.421875 63.28125 -64.171875 L 62.625 -62.953125 C 61.46875 -61.046875 60.582031 -59.003906 59.96875 -56.828125 C 59.351562 -54.648438 58.878906 -52.925781 58.546875 -51.65625 C 58.222656 -50.394531 57.84375 -49.03125 57.40625 -47.5625 L 55.90625 -42.59375 C 53.6875 -35.582031 51 -29.0625 47.84375 -23.03125 C 47.84375 -23.03125 45.125 -18.132812 39.6875 -8.34375 L 53.890625 -25.234375 L 60.140625 -32.359375 L 66.609375 -39.5 L 72.9375 -46.25 C 84.882812 -58.632812 94.921875 -66.140625 103.046875 -68.765625 C 105.796875 -69.671875 108.664062 -70.128906 111.65625 -70.140625 C 114.644531 -70.160156 116.972656 -69.441406 118.640625 -67.984375 C 120.316406 -66.535156 121.171875 -64.484375 121.203125 -61.828125 C 121.265625 -58.847656 119.765625 -55.53125 116.703125 -51.875 C 113.515625 -48.125 109.507812 -45.09375 104.6875 -42.78125 C 103.5625 -42.25 102.753906 -41.984375 102.265625 -41.984375 C 101.785156 -41.984375 101.546875 -42.097656 101.546875 -42.328125 C 101.546875 -42.566406 102.144531 -42.925781 103.34375 -43.40625 C 104.550781 -43.894531 106.101562 -44.78125 108 -46.0625 C 109.894531 -47.34375 111.609375 -48.78125 113.140625 -50.375 C 116.546875 -54.03125 118.25 -57.582031 118.25 -61.03125 C 118.25 -63.5 117.582031 -65.410156 116.25 -66.765625 C 114.925781 -68.128906 113.003906 -68.8125 110.484375 -68.8125 C 107.960938 -68.8125 105.234375 -68.265625 102.296875 -67.171875 C 99.359375 -66.078125 96.15625 -64.328125 92.6875 -61.921875 C 85.832031 -57.191406 77.5625 -49.53125 67.875 -38.9375 L 56.9375 -26.6875 L 47.84375 -16 L 35.5 -1.3125 C 34.28125 0.15625 33.425781 0.890625 32.9375 0.890625 Z M 24.015625 -53.9375 C 23.453125 -53.28125 22.859375 -52.953125 22.234375 -52.953125 C 21.609375 -52.953125 21.0625 -53.144531 20.59375 -53.53125 C 20.125 -53.925781 19.890625 -54.410156 19.890625 -54.984375 C 19.890625 -55.566406 20.082031 -56.078125 20.46875 -56.515625 C 20.863281 -56.953125 21.390625 -57.171875 22.046875 -57.171875 C 22.703125 -57.171875 23.300781 -57.019531 23.84375 -56.71875 C 24.394531 -56.425781 24.890625 -56 25.328125 -55.4375 C 26.265625 -54.21875 26.734375 -52.675781 26.734375 -50.8125 C 26.734375 -48.957031 26.3125 -47.253906 25.46875 -45.703125 C 24.625 -44.160156 23.515625 -42.84375 22.140625 -41.75 C 19.203125 -39.40625 15.804688 -38.234375 11.953125 -38.234375 C 8.046875 -38.234375 4.828125 -39.3125 2.296875 -41.46875 C -0.515625 -43.8125 -1.921875 -47.046875 -1.921875 -51.171875 C -1.921875 -55.609375 0.03125 -59.316406 3.9375 -62.296875 C 7.875 -65.296875 12.957031 -66.796875 19.1875 -66.796875 C 22.90625 -66.796875 25.722656 -66.503906 27.640625 -65.921875 C 29.566406 -65.347656 31.234375 -64.769531 32.640625 -64.1875 C 34.046875 -63.613281 35.457031 -62.984375 36.875 -62.296875 L 41.65625 -60.09375 C 44.09375 -59.082031 46.078125 -58.578125 47.609375 -58.578125 C 50.578125 -58.578125 53.21875 -59.613281 55.53125 -61.6875 C 55.6875 -61.8125 55.863281 -61.875 56.0625 -61.875 C 56.269531 -61.875 56.375 -61.765625 56.375 -61.546875 C 56.375 -61.296875 56.15625 -60.921875 55.71875 -60.421875 C 53.875 -58.566406 51.09375 -57.25 47.375 -56.46875 C 46.375 -56.28125 45.453125 -56.1875 44.609375 -56.1875 C 43.765625 -56.1875 42.765625 -56.28125 41.609375 -56.46875 C 40.453125 -56.65625 39.28125 -56.90625 38.09375 -57.21875 C 35.675781 -57.90625 33.488281 -58.8125 31.53125 -59.9375 C 29.582031 -61.070312 27.910156 -61.957031 26.515625 -62.59375 C 25.128906 -63.238281 23.890625 -63.734375 22.796875 -64.078125 C 20.984375 -64.671875 18.953125 -64.96875 16.703125 -64.96875 C 14.453125 -64.96875 12.285156 -64.613281 10.203125 -63.90625 C 8.117188 -63.207031 6.28125 -62.234375 4.6875 -60.984375 C 1.28125 -58.222656 -0.421875 -54.859375 -0.421875 -50.890625 C -0.421875 -47.546875 0.6875 -44.796875 2.90625 -42.640625 C 5.15625 -40.453125 8.109375 -39.359375 11.765625 -39.359375 C 15.242188 -39.359375 18.296875 -40.375 20.921875 -42.40625 C 23.828125 -44.59375 25.28125 -47.359375 25.28125 -50.703125 C 25.28125 -51.953125 24.859375 -53.03125 24.015625 -53.9375 Z M 24.015625 -53.9375 "/></g></g></g><g style="fill:#ffffff;fill-opacity:1;"><g transform="translate(156.677043, 164.112245)"><path style="stroke:none" d="M 18.71875 0.09375 C 15.59375 0.09375 14.03125 -0.875 14.03125 -2.8125 C 14.03125 -4.40625 14.9375 -6.40625 16.75 -8.8125 L 19.703125 -12.578125 L 19.234375 -12.765625 C 13.972656 -6.285156 9.015625 -2.21875 4.359375 -0.5625 C 3.078125 -0.125 1.96875 0.09375 1.03125 0.09375 C -2.8125 0.09375 -4.734375 -1.953125 -4.734375 -6.046875 C -4.734375 -10.867188 -2.8125 -15.46875 1.03125 -19.84375 C 6.71875 -26.46875 12.441406 -30.390625 18.203125 -31.609375 C 19.921875 -31.953125 21.390625 -32.125 22.609375 -32.125 C 23.828125 -32.125 24.785156 -32.035156 25.484375 -31.859375 C 26.191406 -31.691406 26.8125 -31.453125 27.34375 -31.140625 C 28.46875 -30.421875 29.03125 -29.535156 29.03125 -28.484375 C 29.03125 -27.441406 28.84375 -26.453125 28.46875 -25.515625 L 33.0625 -31.1875 C 33.90625 -30.9375 34.6875 -30.8125 35.40625 -30.8125 C 37.257812 -30.8125 38.59375 -30.875 39.40625 -31 L 23.59375 -11.953125 C 19.84375 -7.578125 17.96875 -4.5 17.96875 -2.71875 C 17.96875 -1.71875 18.5625 -1.21875 19.75 -1.21875 C 20.9375 -1.21875 22.300781 -1.578125 23.84375 -2.296875 C 25.394531 -3.015625 26.9375 -3.9375 28.46875 -5.0625 C 30 -6.1875 31.488281 -7.4375 32.9375 -8.8125 C 34.394531 -10.1875 35.742188 -11.53125 36.984375 -12.84375 C 38.222656 -14.164062 39.3125 -15.390625 40.25 -16.515625 L 42.5 -19.046875 L 43.484375 -18.25 L 41.09375 -15.53125 C 32.082031 -5.113281 24.625 0.09375 18.71875 0.09375 Z M 5.71875 -16.796875 C 1.3125 -11.441406 -0.890625 -7.0625 -0.890625 -3.65625 C -0.890625 -2.09375 -0.1875 -1.3125 1.21875 -1.3125 C 5.78125 -1.3125 12.363281 -6.363281 20.96875 -16.46875 L 24.90625 -21.203125 C 26.78125 -24.046875 27.71875 -26.109375 27.71875 -27.390625 C 27.71875 -29.578125 26.625 -30.671875 24.4375 -30.671875 C 21.46875 -30.671875 17.195312 -28.140625 11.625 -23.078125 C 9.71875 -21.328125 7.75 -19.234375 5.71875 -16.796875 Z M 5.71875 -16.796875 "/></g></g><g style="fill:#ffffff;fill-opacity:1;"><g transform="translate(198.845302, 164.112245)"><path style="stroke:none" d="M 1.6875 -0.890625 C 0.84375 -1.046875 -0.09375 -1.125 -1.125 -1.125 C -2.78125 -1.125 -4.234375 -0.96875 -5.484375 -0.65625 L 10.78125 -23.921875 C 12.820312 -26.765625 13.875 -28.453125 13.9375 -28.984375 C 14.0625 -30.015625 13.734375 -30.53125 12.953125 -30.53125 C 11.785156 -30.53125 8.90625 -27.671875 4.3125 -21.953125 L 1.3125 -18.25 C 1.0625 -18.125 0.800781 -18.191406 0.53125 -18.453125 C 0.269531 -18.722656 0.203125 -18.921875 0.328125 -19.046875 C 1.234375 -20.015625 2.253906 -21.238281 3.390625 -22.71875 C 4.535156 -24.207031 5.734375 -25.640625 6.984375 -27.015625 C 10.046875 -30.421875 12.597656 -32.125 14.640625 -32.125 C 18.078125 -32.125 19.171875 -30.359375 17.921875 -26.828125 C 17.671875 -26.078125 17.125 -25.109375 16.28125 -23.921875 L 6.421875 -10.21875 L 6.65625 -9.703125 C 14.539062 -18.335938 20.140625 -24.046875 23.453125 -26.828125 C 26.609375 -29.453125 28.957031 -30.988281 30.5 -31.4375 C 32.050781 -31.894531 33.316406 -32.125 34.296875 -32.125 C 35.285156 -32.125 36.132812 -31.984375 36.84375 -31.703125 C 37.550781 -31.421875 38.125 -31.0625 38.5625 -30.625 C 39.375 -29.8125 39.769531 -28.832031 39.75 -27.6875 C 39.738281 -26.550781 39.519531 -25.390625 39.09375 -24.203125 C 38.675781 -23.015625 37.96875 -21.609375 36.96875 -19.984375 C 34.863281 -16.640625 31.328125 -12.273438 26.359375 -6.890625 C 24.296875 -4.734375 23.21875 -3.472656 23.125 -3.109375 C 23.03125 -2.753906 22.984375 -2.484375 22.984375 -2.296875 C 22.984375 -1.578125 23.941406 -1.21875 25.859375 -1.21875 C 27.785156 -1.21875 29.582031 -1.613281 31.25 -2.40625 C 32.925781 -3.207031 34.570312 -4.21875 36.1875 -5.4375 C 37.800781 -6.65625 39.332031 -7.988281 40.78125 -9.4375 C 42.238281 -10.894531 43.546875 -12.289062 44.703125 -13.625 C 45.859375 -14.957031 46.828125 -16.113281 47.609375 -17.09375 C 48.390625 -18.082031 48.921875 -18.734375 49.203125 -19.046875 L 50.1875 -18.25 C 49.875 -17.90625 49.3125 -17.21875 48.5 -16.1875 C 47.6875 -15.15625 46.675781 -13.960938 45.46875 -12.609375 C 44.269531 -11.265625 42.910156 -9.84375 41.390625 -8.34375 C 39.878906 -6.84375 38.28125 -5.46875 36.59375 -4.21875 C 32.644531 -1.34375 29.078125 0.09375 25.890625 0.09375 C 23.078125 0.09375 21.125 -0.609375 20.03125 -2.015625 C 19.6875 -2.453125 19.515625 -2.96875 19.515625 -3.5625 C 19.515625 -4.15625 19.597656 -4.832031 19.765625 -5.59375 C 19.941406 -6.363281 20.359375 -7.34375 21.015625 -8.53125 C 22.484375 -11.070312 24.566406 -13.859375 27.265625 -16.890625 C 29.972656 -19.921875 31.75 -21.96875 32.59375 -23.03125 C 33.4375 -24.09375 34.109375 -25.015625 34.609375 -25.796875 C 35.554688 -27.296875 36.03125 -28.453125 36.03125 -29.265625 C 36.03125 -30.390625 35.273438 -30.953125 33.765625 -30.953125 C 30.671875 -30.953125 25.5625 -27.453125 18.4375 -20.453125 C 14.84375 -16.953125 10.710938 -12.335938 6.046875 -6.609375 Z M 1.6875 -0.890625 "/></g></g><g style="fill:#ffffff;fill-opacity:1;"><g transform="translate(247.721075, 164.112245)"><path style="stroke:none" d="M -4.265625 -3.28125 C -4.265625 -1.84375 -3.34375 -1.125 -1.5 -1.125 C 0.34375 -1.125 2.378906 -1.597656 4.609375 -2.546875 C 6.847656 -3.503906 9.046875 -4.75 11.203125 -6.28125 C 15.367188 -9.1875 19.203125 -12.816406 22.703125 -17.171875 C 28.203125 -23.453125 31.5 -27.25 32.59375 -28.5625 C 32.59375 -28.5625 33.4375 -29.609375 35.125 -31.703125 C 36.351562 -31.484375 37.25 -31.375 37.8125 -31.375 C 39.40625 -31.375 40.609375 -31.4375 41.421875 -31.5625 L 25.09375 -11.4375 L 16.796875 -0.328125 L 9.65625 8.953125 C 17.726562 5.078125 23.921875 1.21875 28.234375 -2.625 C 31.046875 -5.125 33.691406 -7.875 36.171875 -10.875 L 42.921875 -19.046875 L 43.90625 -18.25 L 38 -11.25 C 34.488281 -7.125 31.5625 -4.046875 29.21875 -2.015625 C 26.875 0.015625 24.734375 1.6875 22.796875 3 C 19.109375 5.4375 14.179688 8.109375 8.015625 11.015625 C 2.203125 18.304688 -2.175781 23.375 -5.125 26.21875 C -8.082031 29.0625 -10.421875 31.082031 -12.140625 32.28125 C -13.867188 33.488281 -15.546875 34.4375 -17.171875 35.125 C -19.921875 36.320312 -23.1875 36.921875 -26.96875 36.921875 C -28.875 36.921875 -30.140625 36.242188 -30.765625 34.890625 C -30.953125 34.515625 -31.046875 33.921875 -31.046875 33.109375 C -31.046875 32.296875 -30.519531 31.160156 -29.46875 29.703125 C -28.425781 28.253906 -26.640625 26.640625 -24.109375 24.859375 C -19.046875 21.296875 -10.289062 16.882812 2.15625 11.625 L 21.25 -12.578125 L 20.734375 -12.765625 C 17.765625 -9.566406 14.726562 -7.03125 11.625 -5.15625 C 5.84375 -1.65625 1.21875 0.09375 -2.25 0.09375 C -4 0.09375 -5.3125 -0.253906 -6.1875 -0.953125 C -7.0625 -1.660156 -7.5 -2.519531 -7.5 -3.53125 C -7.5 -4.550781 -7.40625 -5.472656 -7.21875 -6.296875 C -7.03125 -7.128906 -6.65625 -8.125 -6.09375 -9.28125 C -4.9375 -11.507812 -2.734375 -14.90625 0.515625 -19.46875 C 1.953125 -21.25 3.6875 -23.171875 5.71875 -25.234375 L 12.25 -31.84375 L 14.453125 -31.609375 C 14.953125 -31.578125 15.722656 -31.5625 16.765625 -31.5625 C 17.816406 -31.5625 18.765625 -31.609375 19.609375 -31.703125 C 16.828125 -29.203125 14.75 -27.171875 13.375 -25.609375 L 10.03125 -21.859375 C 3.125 -14.191406 -0.765625 -9.71875 -1.640625 -8.4375 C -3.390625 -5.9375 -4.265625 -4.21875 -4.265625 -3.28125 Z M 0.515625 13.65625 C -15.210938 20.375 -24.671875 25.71875 -27.859375 29.6875 C -28.984375 31.09375 -29.546875 32.453125 -29.546875 33.765625 C -29.546875 34.109375 -29.332031 34.503906 -28.90625 34.953125 C -28.488281 35.410156 -27.59375 35.640625 -26.21875 35.640625 C -24.84375 35.640625 -23.316406 35.332031 -21.640625 34.71875 C -19.972656 34.113281 -18.109375 33.015625 -16.046875 31.421875 C -12.253906 28.421875 -6.734375 22.5 0.515625 13.65625 Z M 0.515625 13.65625 "/></g></g><g style="fill:#ffffff;fill-opacity:1;"><g transform="translate(290.358391, 164.112245)"><path style="stroke:none" d=""/></g></g><g style="fill:#ffffff;fill-opacity:1;"><g transform="translate(323.333138, 164.112245)"><path style="stroke:none" d="M 18.671875 -45.078125 C 18.671875 -41.671875 20.328125 -39.96875 23.640625 -39.96875 C 27.859375 -39.96875 32.300781 -41.96875 36.96875 -45.96875 C 39.6875 -48.3125 41.5625 -50.425781 42.59375 -52.3125 C 43.625 -54.207031 44.1875 -55.5 44.28125 -56.1875 C 44.40625 -57.21875 44.5625 -57.734375 44.75 -57.734375 C 45.0625 -57.734375 45.21875 -57.175781 45.21875 -56.0625 C 45.21875 -54.957031 44.9375 -53.644531 44.375 -52.125 C 43.8125 -50.613281 43.035156 -49.171875 42.046875 -47.796875 C 41.066406 -46.421875 39.925781 -45.144531 38.625 -43.96875 C 37.332031 -42.800781 35.929688 -41.78125 34.421875 -40.90625 C 31.265625 -39.09375 28.328125 -38.1875 25.609375 -38.1875 C 22.890625 -38.1875 20.828125 -38.738281 19.421875 -39.84375 C 18.015625 -40.957031 17.3125 -42.519531 17.3125 -44.53125 C 17.3125 -46.550781 17.894531 -48.5625 19.0625 -50.5625 C 20.238281 -52.5625 21.921875 -54.46875 24.109375 -56.28125 C 28.796875 -60.195312 34.863281 -63.046875 42.3125 -64.828125 C 46.71875 -65.828125 52.359375 -66.328125 59.234375 -66.328125 C 61.492188 -66.328125 64.1875 -66.140625 67.3125 -65.765625 C 73.34375 -65.046875 77.441406 -64.6875 79.609375 -64.6875 C 81.785156 -64.6875 83.78125 -64.890625 85.59375 -65.296875 C 87.414062 -65.703125 89.03125 -66.28125 90.4375 -67.03125 C 93.15625 -68.46875 95.265625 -70.46875 96.765625 -73.03125 C 97.109375 -73.5625 97.4375 -73.828125 97.75 -73.828125 C 98.0625 -73.828125 98.21875 -73.734375 98.21875 -73.546875 C 98.21875 -73.203125 98.078125 -72.875 97.796875 -72.5625 C 92.765625 -64.53125 84.726562 -60.515625 73.6875 -60.515625 C 71.03125 -60.515625 67.65625 -60.765625 63.5625 -61.265625 C 55.613281 -62.234375 50.390625 -62.71875 47.890625 -62.71875 C 45.390625 -62.71875 42.957031 -62.472656 40.59375 -61.984375 C 38.238281 -61.503906 35.976562 -60.835938 33.8125 -59.984375 C 31.65625 -59.140625 29.65625 -58.144531 27.8125 -57 C 25.96875 -55.863281 24.359375 -54.640625 22.984375 -53.328125 C 20.109375 -50.546875 18.671875 -47.796875 18.671875 -45.078125 Z M 0.046875 -8.625 C 0.046875 -7.9375 -0.21875 -7.359375 -0.75 -6.890625 C -1.28125 -6.421875 -1.957031 -6.1875 -2.78125 -6.1875 C -3.613281 -6.1875 -4.296875 -6.34375 -4.828125 -6.65625 L -4.828125 -6.421875 C -4.828125 -4.921875 -3.921875 -3.671875 -2.109375 -2.671875 C -0.359375 -1.703125 1.53125 -1.21875 3.5625 -1.21875 C 5.59375 -1.21875 7.347656 -1.359375 8.828125 -1.640625 C 10.316406 -1.921875 11.859375 -2.4375 13.453125 -3.1875 C 15.054688 -3.9375 16.722656 -4.972656 18.453125 -6.296875 C 20.191406 -7.628906 22.015625 -9.34375 23.921875 -11.4375 C 27.953125 -15.820312 32.238281 -21.828125 36.78125 -29.453125 C 36.875 -29.640625 36.953125 -29.765625 37.015625 -29.828125 C 26.441406 -27.484375 18.828125 -24.203125 14.171875 -19.984375 C 12.796875 -18.765625 11.882812 -17.765625 11.4375 -16.984375 C 10.8125 -15.921875 10.390625 -15.390625 10.171875 -15.390625 C 9.953125 -15.390625 9.84375 -15.46875 9.84375 -15.625 C 9.84375 -16 9.953125 -16.3125 10.171875 -16.5625 C 11.359375 -19.40625 14.503906 -22.265625 19.609375 -25.140625 C 24.828125 -28.046875 30.941406 -30.234375 37.953125 -31.703125 C 38.046875 -31.703125 38.125 -31.71875 38.1875 -31.75 C 43.34375 -39.820312 49.375 -46.28125 56.28125 -51.125 C 62.039062 -55.15625 66.84375 -57.171875 70.6875 -57.171875 C 71.40625 -57.171875 71.765625 -57.0625 71.765625 -56.84375 C 71.765625 -56.625 71.640625 -56.488281 71.390625 -56.4375 C 71.140625 -56.394531 70.347656 -56.175781 69.015625 -55.78125 C 67.691406 -55.394531 66.03125 -54.5625 64.03125 -53.28125 C 62.03125 -52 59.976562 -50.40625 57.875 -48.5 C 53.625 -44.59375 49.515625 -39.601562 45.546875 -33.53125 C 49.953125 -34.65625 53.25 -35.613281 55.4375 -36.40625 C 56.09375 -36.84375 56.625 -37.46875 57.03125 -38.28125 C 58.28125 -38.28125 59.710938 -38.1875 61.328125 -38 C 62.941406 -37.8125 63.890625 -37.671875 64.171875 -37.578125 C 60.535156 -35.910156 57.21875 -32.859375 54.21875 -28.421875 C 53.25 -27.015625 52.582031 -25.859375 52.21875 -24.953125 C 51.863281 -24.046875 51.628906 -23.546875 51.515625 -23.453125 C 51.410156 -23.359375 51.28125 -23.3125 51.125 -23.3125 C 50.75 -23.3125 50.5625 -23.53125 50.5625 -23.96875 C 50.5625 -24.65625 51.109375 -26.191406 52.203125 -28.578125 C 53.296875 -30.972656 54.234375 -32.765625 55.015625 -33.953125 C 53.765625 -33.546875 52.15625 -33.125 50.1875 -32.6875 L 44.1875 -31.375 C 41.21875 -26.15625 37.882812 -21.304688 34.1875 -16.828125 C 30.5 -12.359375 27.078125 -8.9375 23.921875 -6.5625 C 18.078125 -2.15625 11.492188 0.046875 4.171875 0.046875 C 1.359375 0.046875 -1.125 -0.625 -3.28125 -1.96875 C -5.5625 -3.375 -6.703125 -4.984375 -6.703125 -6.796875 C -6.703125 -8.734375 -5.75 -9.96875 -3.84375 -10.5 C -3.3125 -10.625 -2.796875 -10.6875 -2.296875 -10.6875 C -1.796875 -10.6875 -1.28125 -10.515625 -0.75 -10.171875 C -0.21875 -9.828125 0.046875 -9.3125 0.046875 -8.625 Z M 0.046875 -8.625 "/></g></g><g style="fill:#ffffff;fill-opacity:1;"><g transform="translate(383.982255, 164.112245)"><path style="stroke:none" d="M 18.71875 0.09375 C 15.59375 0.09375 14.03125 -0.875 14.03125 -2.8125 C 14.03125 -4.40625 14.9375 -6.40625 16.75 -8.8125 L 19.703125 -12.578125 L 19.234375 -12.765625 C 13.972656 -6.285156 9.015625 -2.21875 4.359375 -0.5625 C 3.078125 -0.125 1.96875 0.09375 1.03125 0.09375 C -2.8125 0.09375 -4.734375 -1.953125 -4.734375 -6.046875 C -4.734375 -10.867188 -2.8125 -15.46875 1.03125 -19.84375 C 6.71875 -26.46875 12.441406 -30.390625 18.203125 -31.609375 C 19.921875 -31.953125 21.390625 -32.125 22.609375 -32.125 C 23.828125 -32.125 24.785156 -32.035156 25.484375 -31.859375 C 26.191406 -31.691406 26.8125 -31.453125 27.34375 -31.140625 C 28.46875 -30.421875 29.03125 -29.535156 29.03125 -28.484375 C 29.03125 -27.441406 28.84375 -26.453125 28.46875 -25.515625 L 33.0625 -31.1875 C 33.90625 -30.9375 34.6875 -30.8125 35.40625 -30.8125 C 37.257812 -30.8125 38.59375 -30.875 39.40625 -31 L 23.59375 -11.953125 C 19.84375 -7.578125 17.96875 -4.5 17.96875 -2.71875 C 17.96875 -1.71875 18.5625 -1.21875 19.75 -1.21875 C 20.9375 -1.21875 22.300781 -1.578125 23.84375 -2.296875 C 25.394531 -3.015625 26.9375 -3.9375 28.46875 -5.0625 C 30 -6.1875 31.488281 -7.4375 32.9375 -8.8125 C 34.394531 -10.1875 35.742188 -11.53125 36.984375 -12.84375 C 38.222656 -14.164062 39.3125 -15.390625 40.25 -16.515625 L 42.5 -19.046875 L 43.484375 -18.25 L 41.09375 -15.53125 C 32.082031 -5.113281 24.625 0.09375 18.71875 0.09375 Z M 5.71875 -16.796875 C 1.3125 -11.441406 -0.890625 -7.0625 -0.890625 -3.65625 C -0.890625 -2.09375 -0.1875 -1.3125 1.21875 -1.3125 C 5.78125 -1.3125 12.363281 -6.363281 20.96875 -16.46875 L 24.90625 -21.203125 C 26.78125 -24.046875 27.71875 -26.109375 27.71875 -27.390625 C 27.71875 -29.578125 26.625 -30.671875 24.4375 -30.671875 C 21.46875 -30.671875 17.195312 -28.140625 11.625 -23.078125 C 9.71875 -21.328125 7.75 -19.234375 5.71875 -16.796875 Z M 5.71875 -16.796875 "/></g></g><g style="fill:#ffffff;fill-opacity:1;"><g transform="translate(426.150503, 164.112245)"><path style="stroke:none" d="M 8.109375 -3.671875 C 8.109375 -2.222656 8.722656 -1.5 9.953125 -1.5 C 11.191406 -1.5 12.554688 -1.875 14.046875 -2.625 C 15.535156 -3.375 17.050781 -4.328125 18.59375 -5.484375 C 20.144531 -6.640625 21.671875 -7.921875 23.171875 -9.328125 L 27.25 -13.421875 C 28.5 -14.703125 29.578125 -15.859375 30.484375 -16.890625 L 32.40625 -19.046875 L 33.34375 -18.25 C 32.75 -17.71875 31.953125 -16.890625 30.953125 -15.765625 L 27.578125 -12.015625 C 19.953125 -3.941406 13.382812 0.09375 7.875 0.09375 C 6.09375 0.09375 4.660156 -0.34375 3.578125 -1.21875 C 2.503906 -2.09375 1.96875 -3.265625 1.96875 -4.734375 C 1.96875 -9.390625 8.753906 -16.269531 22.328125 -25.375 C 15.703125 -26.46875 11.117188 -27.578125 8.578125 -28.703125 C 6.515625 -24.453125 3.34375 -20.125 -0.9375 -15.71875 C -1.9375 -14.6875 -2.550781 -14.125 -2.78125 -14.03125 C -3.019531 -13.9375 -3.171875 -13.863281 -3.234375 -13.8125 C -3.296875 -13.769531 -3.34375 -13.859375 -3.375 -14.078125 C -3.40625 -14.296875 -3.40625 -14.457031 -3.375 -14.5625 C -3.34375 -14.675781 -3.28125 -14.796875 -3.1875 -14.921875 C -1.71875 -16.578125 -0.359375 -18.171875 0.890625 -19.703125 C 3.796875 -23.328125 5.9375 -26.546875 7.3125 -29.359375 C 6.1875 -30.078125 5.546875 -30.84375 5.390625 -31.65625 C 5.234375 -32.46875 5.238281 -33.222656 5.40625 -33.921875 C 5.582031 -34.628906 5.859375 -35.265625 6.234375 -35.828125 C 7.046875 -37.054688 7.984375 -37.671875 9.046875 -37.671875 C 11.023438 -37.671875 12.015625 -36.945312 12.015625 -35.5 C 12.015625 -34.78125 11.867188 -34.171875 11.578125 -33.671875 L 10.734375 -32.21875 C 10.171875 -31.5 9.890625 -30.671875 9.890625 -29.734375 C 9.890625 -29.171875 11.085938 -28.640625 13.484375 -28.140625 C 15.878906 -27.640625 17.578125 -27.296875 18.578125 -27.109375 C 20.765625 -26.703125 22.5 -26.46875 23.78125 -26.40625 C 24.65625 -26.375 25.09375 -26.140625 25.09375 -25.703125 C 25.09375 -25.421875 24.582031 -24.875 23.5625 -24.0625 C 22.550781 -23.25 21.4375 -22.265625 20.21875 -21.109375 C 19 -19.953125 17.8125 -18.738281 16.65625 -17.46875 C 15.5 -16.207031 14.398438 -14.914062 13.359375 -13.59375 C 12.328125 -12.28125 11.421875 -11.015625 10.640625 -9.796875 C 8.953125 -7.171875 8.109375 -5.128906 8.109375 -3.671875 Z M 8.109375 -3.671875 "/></g></g><g style="fill:#ffffff;fill-opacity:1;"><g transform="translate(458.234024, 164.112245)"><path style="stroke:none" d="M 24.828125 -42.40625 C 24.378906 -42 23.875 -41.675781 23.3125 -41.4375 C 22.75 -41.207031 22.109375 -41.09375 21.390625 -41.09375 C 20.671875 -41.09375 20.050781 -41.363281 19.53125 -41.90625 C 19.019531 -42.457031 18.765625 -43.078125 18.765625 -43.765625 C 18.765625 -44.453125 18.890625 -45.0625 19.140625 -45.59375 C 19.390625 -46.125 19.734375 -46.59375 20.171875 -47 C 21.078125 -47.9375 22.066406 -48.40625 23.140625 -48.40625 C 24.222656 -48.40625 25.019531 -48.113281 25.53125 -47.53125 C 26.050781 -46.957031 26.3125 -46.328125 26.3125 -45.640625 C 26.3125 -44.953125 26.175781 -44.34375 25.90625 -43.8125 C 25.644531 -43.28125 25.285156 -42.8125 24.828125 -42.40625 Z M -4.96875 -2.6875 C -4.96875 -1.707031 -4.046875 -1.21875 -2.203125 -1.21875 C -0.359375 -1.21875 1.378906 -1.640625 3.015625 -2.484375 C 4.660156 -3.328125 6.316406 -4.378906 7.984375 -5.640625 C 9.660156 -6.910156 11.285156 -8.296875 12.859375 -9.796875 L 17.078125 -14.03125 C 18.328125 -15.34375 19.359375 -16.472656 20.171875 -17.421875 C 20.984375 -18.378906 21.46875 -18.9375 21.625 -19.09375 L 22.5625 -18.25 C 22.25 -17.9375 21.660156 -17.269531 20.796875 -16.25 C 19.941406 -15.238281 18.875 -14.050781 17.59375 -12.6875 C 16.3125 -11.320312 14.867188 -9.890625 13.265625 -8.390625 C 11.671875 -6.890625 10 -5.515625 8.25 -4.265625 C 4.21875 -1.359375 0.6875 0.09375 -2.34375 0.09375 C -4.28125 0.09375 -5.828125 -0.253906 -6.984375 -0.953125 C -8.140625 -1.660156 -8.71875 -2.46875 -8.71875 -3.375 C -8.71875 -4.28125 -8.625 -5.09375 -8.4375 -5.8125 C -8.25 -6.53125 -7.90625 -7.390625 -7.40625 -8.390625 C -6.90625 -9.390625 -6.207031 -10.5625 -5.3125 -11.90625 C -4.425781 -13.257812 -3.269531 -14.875 -1.84375 -16.75 C -0.425781 -18.625 1.296875 -20.796875 3.328125 -23.265625 L 10.546875 -31.796875 C 10.921875 -31.703125 11.691406 -31.65625 12.859375 -31.65625 L 15.0625 -31.65625 C 15.875 -31.65625 16.53125 -31.6875 17.03125 -31.75 C 6.675781 -19.40625 0.851562 -12.378906 -0.4375 -10.671875 C -1.738281 -8.960938 -2.703125 -7.625 -3.328125 -6.65625 C -4.421875 -5 -4.96875 -3.675781 -4.96875 -2.6875 Z M -4.96875 -2.6875 "/></g></g><g style="fill:#ffffff;fill-opacity:1;"><g transform="translate(479.482303, 164.112245)"><path style="stroke:none" d="M 18.71875 0.09375 C 15.59375 0.09375 14.03125 -0.875 14.03125 -2.8125 C 14.03125 -4.40625 14.9375 -6.40625 16.75 -8.8125 L 19.703125 -12.578125 L 19.234375 -12.765625 C 13.972656 -6.285156 9.015625 -2.21875 4.359375 -0.5625 C 3.078125 -0.125 1.96875 0.09375 1.03125 0.09375 C -2.8125 0.09375 -4.734375 -1.953125 -4.734375 -6.046875 C -4.734375 -10.867188 -2.8125 -15.46875 1.03125 -19.84375 C 6.71875 -26.46875 12.441406 -30.390625 18.203125 -31.609375 C 19.921875 -31.953125 21.390625 -32.125 22.609375 -32.125 C 23.828125 -32.125 24.785156 -32.035156 25.484375 -31.859375 C 26.191406 -31.691406 26.8125 -31.453125 27.34375 -31.140625 C 28.46875 -30.421875 29.03125 -29.535156 29.03125 -28.484375 C 29.03125 -27.441406 28.84375 -26.453125 28.46875 -25.515625 L 33.0625 -31.1875 C 33.90625 -30.9375 34.6875 -30.8125 35.40625 -30.8125 C 37.257812 -30.8125 38.59375 -30.875 39.40625 -31 L 23.59375 -11.953125 C 19.84375 -7.578125 17.96875 -4.5 17.96875 -2.71875 C 17.96875 -1.71875 18.5625 -1.21875 19.75 -1.21875 C 20.9375 -1.21875 22.300781 -1.578125 23.84375 -2.296875 C 25.394531 -3.015625 26.9375 -3.9375 28.46875 -5.0625 C 30 -6.1875 31.488281 -7.4375 32.9375 -8.8125 C 34.394531 -10.1875 35.742188 -11.53125 36.984375 -12.84375 C 38.222656 -14.164062 39.3125 -15.390625 40.25 -16.515625 L 42.5 -19.046875 L 43.484375 -18.25 L 41.09375 -15.53125 C 32.082031 -5.113281 24.625 0.09375 18.71875 0.09375 Z M 5.71875 -16.796875 C 1.3125 -11.441406 -0.890625 -7.0625 -0.890625 -3.65625 C -0.890625 -2.09375 -0.1875 -1.3125 1.21875 -1.3125 C 5.78125 -1.3125 12.363281 -6.363281 20.96875 -16.46875 L 24.90625 -21.203125 C 26.78125 -24.046875 27.71875 -26.109375 27.71875 -27.390625 C 27.71875 -29.578125 26.625 -30.671875 24.4375 -30.671875 C 21.46875 -30.671875 17.195312 -28.140625 11.625 -23.078125 C 9.71875 -21.328125 7.75 -19.234375 5.71875 -16.796875 Z M 5.71875 -16.796875 "/></g></g><g style="fill:#ffffff;fill-opacity:1;"><g transform="translate(521.650597, 164.112245)"><path style="stroke:none" d="M 14.453125 -8.625 C 14.828125 -8.5625 15.300781 -8.53125 15.875 -8.53125 C 16.457031 -8.53125 17.15625 -8.75 17.96875 -9.1875 C 18.78125 -9.625 19.613281 -10.1875 20.46875 -10.875 C 21.332031 -11.5625 22.1875 -12.320312 23.03125 -13.15625 C 23.875 -13.988281 24.644531 -14.785156 25.34375 -15.546875 C 26.050781 -16.316406 26.671875 -17.015625 27.203125 -17.640625 L 28.28125 -19.046875 L 29.3125 -18.25 C 28.9375 -17.875 28.453125 -17.359375 27.859375 -16.703125 L 25.890625 -14.453125 C 21.546875 -9.753906 18.109375 -7.40625 15.578125 -7.40625 L 14.78125 -7.40625 C 14.53125 -7.40625 14.28125 -7.4375 14.03125 -7.5 C 11.394531 -1.78125 5.8125 1.078125 -2.71875 1.078125 C -6.4375 1.078125 -9.140625 0.1875 -10.828125 -1.59375 C -11.546875 -2.375 -11.90625 -3.375 -11.90625 -4.59375 C -11.90625 -5.8125 -11.613281 -6.847656 -11.03125 -7.703125 C -10.457031 -8.566406 -9.78125 -9.28125 -9 -9.84375 C -7.40625 -11 -5.972656 -11.578125 -4.703125 -11.578125 C -3.441406 -11.578125 -2.8125 -10.984375 -2.8125 -9.796875 C -2.90625 -8.984375 -3.59375 -8.375 -4.875 -7.96875 C -5.28125 -7.84375 -5.675781 -7.78125 -6.0625 -7.78125 C -6.457031 -7.78125 -6.832031 -7.910156 -7.1875 -8.171875 C -7.550781 -8.441406 -7.84375 -8.640625 -8.0625 -8.765625 C -8.25 -8.578125 -8.488281 -8.359375 -8.78125 -8.109375 C -9.082031 -7.859375 -9.375 -7.5625 -9.65625 -7.21875 C -10.34375 -6.375 -10.6875 -5.503906 -10.6875 -4.609375 C -10.6875 -3.722656 -10.390625 -3.015625 -9.796875 -2.484375 C -9.203125 -1.953125 -8.5 -1.546875 -7.6875 -1.265625 C -6.46875 -0.828125 -5.191406 -0.609375 -3.859375 -0.609375 C -2.535156 -0.609375 -1.164062 -0.890625 0.25 -1.453125 C 1.675781 -2.015625 3.078125 -2.953125 4.453125 -4.265625 C 8.234375 -7.859375 10.28125 -13.191406 10.59375 -20.265625 C 10.78125 -25.015625 11.363281 -28.734375 12.34375 -31.421875 C 12.375 -31.515625 12.390625 -31.65625 12.390625 -31.84375 L 1.3125 -18.25 C 0.6875 -17.5 0.226562 -17.015625 -0.0625 -16.796875 C -0.363281 -16.578125 -0.515625 -16.46875 -0.515625 -16.46875 C -0.890625 -16.4375 -1.140625 -16.53125 -1.265625 -16.75 C -1.328125 -16.90625 -1.1875 -17.203125 -0.84375 -17.640625 C 7.21875 -27.265625 11.753906 -32.734375 12.765625 -34.046875 C 13.265625 -36.492188 14.078125 -37.71875 15.203125 -37.71875 C 15.734375 -37.71875 16.175781 -37.578125 16.53125 -37.296875 C 16.894531 -37.015625 17.078125 -36.65625 17.078125 -36.21875 C 17.046875 -35.613281 16.566406 -34.769531 15.640625 -33.6875 C 14.722656 -32.613281 14.160156 -31.925781 13.953125 -31.625 C 13.753906 -31.332031 13.625 -31.082031 13.5625 -30.875 C 13.5 -30.675781 13.46875 -30.484375 13.46875 -30.296875 L 13.46875 -29.734375 C 13.4375 -28.890625 13.515625 -27.890625 13.703125 -26.734375 L 14.875 -18.953125 C 15.5625 -14.703125 15.421875 -11.257812 14.453125 -8.625 Z M 14.453125 -8.625 "/></g></g><g mask="url(#e74b5e1dbe)" transform="matrix(1,0,0,1,202,20)"><g clip-path="url(#a2ea2c72c8)"><g clip-rule="nonzero" clip-path="url(#e2877e6ad7)"><path style=" stroke:none;fill-rule:evenodd;fill:#ffffff;fill-opacity:1;" d="M 109.59375 8.050781 L 116.699219 0.941406 C 117.089844 0.5625 117.714844 0.5625 118.09375 0.941406 L 125.199219 8.050781 C 125.578125 8.429688 125.578125 9.0625 125.199219 9.441406 L 118.09375 16.546875 C 117.703125 16.925781 117.078125 16.925781 116.699219 16.546875 L 109.59375 9.441406 C 109.203125 9.050781 109.203125 8.429688 109.59375 8.050781 Z M 231.851562 10.011719 C 232.308594 10.011719 232.6875 9.640625 232.6875 9.175781 C 232.6875 8.71875 232.320312 8.339844 231.851562 8.339844 L 131.601562 8.339844 C 131.148438 8.339844 130.769531 8.707031 130.769531 9.175781 C 130.769531 9.632812 131.136719 10.011719 131.601562 10.011719 Z M 131.601562 11.503906 C 132.882812 11.503906 133.929688 10.457031 133.929688 9.175781 C 133.929688 7.894531 132.882812 6.847656 131.601562 6.847656 C 130.320312 6.847656 129.273438 7.894531 129.273438 9.175781 C 129.273438 10.457031 130.320312 11.503906 131.601562 11.503906 Z M 231.851562 11.503906 C 233.132812 11.503906 234.179688 10.457031 234.179688 9.175781 C 234.179688 7.894531 233.132812 6.847656 231.851562 6.847656 C 230.570312 6.847656 229.523438 7.894531 229.523438 9.175781 C 229.523438 10.457031 230.570312 11.503906 231.851562 11.503906 Z M 103.175781 10.011719 C 103.632812 10.011719 104.011719 9.640625 104.011719 9.175781 C 104.011719 8.71875 103.644531 8.339844 103.175781 8.339844 L 2.929688 8.339844 C 2.472656 8.339844 2.09375 8.707031 2.09375 9.175781 C 2.09375 9.632812 2.460938 10.011719 2.929688 10.011719 Z M 2.929688 11.503906 C 4.210938 11.503906 5.257812 10.457031 5.257812 9.175781 C 5.257812 7.894531 4.199219 6.859375 2.929688 6.859375 C 1.648438 6.859375 0.601562 7.90625 0.601562 9.1875 C 0.601562 10.464844 1.648438 11.503906 2.929688 11.503906 Z M 103.175781 11.503906 C 104.457031 11.503906 105.503906 10.457031 105.503906 9.175781 C 105.503906 7.894531 104.457031 6.847656 103.175781 6.847656 C 101.894531 6.859375 100.847656 7.90625 100.847656 9.1875 C 100.847656 10.464844 101.894531 11.503906 103.175781 11.503906 Z M 103.175781 11.503906 "/></g></g><mask id="e74b5e1dbe"><g filter="url(#c45b657846)"><rect x="0" width="639.75" y="0" height="284.250005" style="fill:#000000;fill-opacity:0.8;stroke:none;"/></g></mask></g></g></svg>